<svg xmlns="http://www.w3.org/2000/svg" viewBox="0 0 192 192">
  <rect width="192" height="192" rx="38" fill="#3b6ef5"/>
  <path fill="none" stroke="white" stroke-width="15" stroke-linecap="round" stroke-linejoin="round"
    d="M60 36H52a18 18 0 0 0-18 18v20a18 18 0 0 1-18 18 18 18 0 0 1 18 18v20a18 18 0 0 0 18 18h8"/>
  <path fill="none" stroke="white" stroke-width="15" stroke-linecap="round" stroke-linejoin="round"
    d="M132 36h8a18 18 0 0 1 18 18v20a18 18 0 0 0 18 18 18 18 0 0 0-18 18v20a18 18 0 0 1-18 18h-8"/>
</svg>
