<svg xmlns="http://www.w3.org/2000/svg" viewBox="0 0 512 512">
  <rect width="512" height="512" rx="100" fill="#3b6ef5"/>
  <path fill="none" stroke="white" stroke-width="38" stroke-linecap="round" stroke-linejoin="round"
    d="M158 92h-22a48 48 0 0 0-48 48v54a48 48 0 0 1-48 48 48 48 0 0 1 48 48v54a48 48 0 0 0 48 48h22"/>
  <path fill="none" stroke="white" stroke-width="38" stroke-linecap="round" stroke-linejoin="round"
    d="M354 92h22a48 48 0 0 1 48 48v54a48 48 0 0 0 48 48 48 48 0 0 0-48 48v54a48 48 0 0 1-48 48h-22"/>
</svg>
